HIERARCHY
ROOT Hips
{
	OFFSET 0.000000 0.000000 0.000000
	CHANNELS 6 Xposition Yposition Zposition Zrotation Yrotation Xrotation 
	JOINT LHipJoint
	{
		OFFSET 0.000000 0.000000 0.000000
		CHANNELS 3 Zrotation Yrotation Xrotation
		JOINT LeftUpLeg
		{
			OFFSET 1.363060 -1.794630 0.839290
			CHANNELS 3 Zrotation Yrotation Xrotation
			JOINT LeftLeg
			{
				OFFSET 2.448110 -6.726130 0.000000
				CHANNELS 3 Zrotation Yrotation Xrotation
				JOINT LeftFoot
				{
					OFFSET 2.562200 -7.039590 0.000000
					CHANNELS 3 Zrotation Yrotation Xrotation
					JOINT LeftToeBase
					{
						OFFSET 0.157640 -0.433110 2.322550
						CHANNELS 3 Zrotation Yrotation Xrotation
						End Site
						{
							OFFSET 0.000000 0.000000 0.000000
						}
					}
				}
			}
		}
	}
	JOINT RHipJoint
	{
		OFFSET 0.000000 0.000000 0.000000
		CHANNELS 3 Zrotation Yrotation Xrotation
		JOINT RightUpLeg
		{
			OFFSET -1.305520 -1.794630 0.839290
			CHANNELS 3 Zrotation Yrotation Xrotation
			JOINT RightLeg
			{
				OFFSET -2.542530 -6.985550 0.000000
				CHANNELS 3 Zrotation Yrotation Xrotation
				JOINT RightFoot
				{
					OFFSET -2.568260 -7.056230 0.000000
					CHANNELS 3 Zrotation Yrotation Xrotation
					JOINT RightToeBase
					{
						OFFSET -0.164730 -0.452590 2.363150
						CHANNELS 3 Zrotation Yrotation Xrotation
						End Site
						{
							OFFSET 0.000000 0.000000 0.000000
						}
					}
				}
			}
		}
	}
}
MOTION
Frames: 28
Frame Time: 0.008333
3.013838 17.119741 -1.296649 40.024018 -69.964242 -1.301444 -4.718727 -0.186751 11.480852 2.090524 -32.840933 -114.471852 -8.427817 -4.720256 -6.501062 -1.359735 -1.088927 9.736903 1.556499 0.000000 -45.186099 8.943919 2.457893 -3.308609 9.442144 -7.694647 -49.721111 2.963612 -0.855696 22.333058 -2.337270 -6.713921 -12.337494 -0.057900 0.000000 -47.746300
3.022320 17.128188 -1.295326 39.335906 -70.190922 -0.984612 -4.752853 -0.300810 11.382202 2.478976 -32.166064 -113.364533 -8.067687 -4.635171 -6.543533 -1.313032 -0.863593 10.162489 1.611600 0.000000 -45.020199 8.902248 2.397953 -3.347899 9.685076 -7.464372 -49.023093 2.950613 -0.782788 21.914911 -2.364622 -6.899151 -12.215707 -0.073700 -0.000000 -47.469400
3.029242 17.138678 -1.292638 38.636954 -70.495389 -0.752542 -4.797462 -0.408280 11.240162 2.651186 -31.458373 -111.881653 -7.700033 -4.544242 -6.618235 -1.258789 -0.627406 10.577570 1.665200 0.000000 -44.917900 8.864100 2.321007 -3.370308 9.950891 -7.208099 -48.180287 2.937373 -0.695821 21.400377 -2.382605 -7.064336 -12.049506 -0.095699 0.000000 -47.212900
3.033438 17.150658 -1.289313 37.993031 -70.860403 -0.653311 -4.849350 -0.501036 11.061875 2.583152 -30.748066 -110.044171 -7.342504 -4.453139 -6.739731 -1.192941 -0.348454 10.988096 1.732700 0.000001 -44.924700 8.837074 2.234343 -3.374307 10.220498 -6.966639 -47.232749 2.927367 -0.600773 20.820279 -2.384413 -7.174276 -11.854771 -0.120600 0.000000 -46.977100
3.035785 17.164196 -1.284627 37.345338 -71.286619 -0.633327 -4.915370 -0.581625 10.834163 2.225934 -30.043530 -107.876806 -7.009121 -4.347233 -6.835243 -1.124933 -0.078725 11.371133 1.793300 0.000001 -45.035400 8.814774 2.132985 -3.360419 10.501530 -6.714366 -46.152995 2.917805 -0.493572 20.144004 -2.376123 -7.260348 -11.617441 -0.151400 0.000000 -46.773900
3.035387 17.178760 -1.279048 36.746795 -71.757142 -0.731188 -4.991972 -0.646653 10.568231 1.593624 -29.339973 -105.414170 -6.706969 -4.232785 -6.927613 -1.052657 0.206090 11.749052 1.858900 -0.000000 -45.254800 8.803519 2.024468 -3.329545 10.778062 -6.489497 -44.982375 2.911698 -0.380950 19.410095 -2.352377 -7.292580 -11.355092 -0.184300 0.000001 -46.597000
3.032417 17.194163 -1.272246 36.181336 -72.267496 -0.926409 -5.081486 -0.698891 10.263518 0.699246 -28.613509 -102.694580 -6.438700 -4.105075 -6.990323 -0.981230 0.480462 12.122405 1.919600 0.000000 -45.544800 8.801478 1.909126 -3.282972 11.048043 -6.286399 -43.720748 2.907538 -0.263187 18.618178 -2.316172 -7.284375 -11.065131 -0.219600 0.000000 -46.457400
3.027014 17.210140 -1.263916 35.631934 -72.810908 -1.197449 -5.185320 -0.740964 9.921897 -0.422861 -27.833359 -99.763646 -6.203665 -3.960759 -6.999113 -0.915476 0.716940 12.488443 1.964100 -0.000000 -45.852400 8.807092 1.787787 -3.223442 11.311714 -6.105639 -42.373343 2.904764 -0.142032 17.777430 -2.269719 -7.244313 -10.749415 -0.257100 -0.000000 -46.356000
3.019138 17.226349 -1.253911 35.098077 -73.383263 -1.534274 -5.303587 -0.775671 9.550722 -1.695043 -26.961982 -96.677940 -5.994549 -3.801172 -6.948349 -0.855115 0.913323 12.843419 1.991200 0.000000 -46.110900 8.819678 1.662418 -3.150758 11.564445 -5.942513 -40.958328 2.902207 -0.019837 16.904315 -2.215568 -7.180671 -10.412751 -0.296000 0.000000 -46.293600
3.008862 17.242479 -1.241981 34.564331 -73.980897 -1.911228 -5.436673 -0.806137 9.156836 -3.022257 -25.970763 -93.496380 -5.801115 -3.627270 -6.825335 -0.798837 1.069362 13.172539 2.000000 -0.000000 -46.259000 8.836936 1.533559 -3.065272 11.806444 -5.786980 -39.489133 2.898709 0.101598 16.011584 -2.157179 -7.106618 -10.058157 -0.336400 0.000001 -46.268600
2.996185 17.258187 -1.227964 34.021418 -74.601040 -2.305096 -5.584011 -0.834786 8.750094 -4.287918 -24.847921 -90.279320 -5.609860 -3.442254 -6.624037 -0.741414 1.206774 13.456009 1.998799 0.000000 -46.250100 8.856560 1.401972 -2.966216 12.037389 -5.626148 -37.984044 2.893130 0.220567 15.112386 -2.098183 -7.035817 -9.689376 -0.378401 0.000000 -46.277600
2.981245 17.273189 -1.211865 33.460005 -75.241121 -2.693066 -5.744304 -0.863807 8.342253 -5.364879 -23.605039 -87.080396 -5.404593 -3.250367 -6.342354 -0.673921 1.370094 13.670858 2.005701 -0.000000 -46.062301 8.875912 1.268814 -2.852678 12.256961 -5.444685 -36.463024 2.884329 0.335532 14.218874 -2.042379 -6.982905 -9.310485 -0.422600 0.000000 -46.319000
2.963950 17.287184 -1.193802 32.885889 -75.897220 -3.062632 -5.915066 -0.893058 7.947664 -6.142176 -22.283789 -83.943077 -5.171223 -3.055560 -5.974114 -0.586342 1.614009 13.790191 2.042600 -0.000000 -45.696400 8.893260 1.135786 -2.724092 12.463552 -5.232230 -34.951205 2.872039 0.444616 13.347357 -1.992120 -6.954710 -8.929831 -0.468500 0.000000 -46.378100
2.944333 17.300035 -1.173983 32.308684 -76.565710 -3.406766 -6.093177 -0.922227 7.581229 -6.525997 -20.949608 -80.893693 -4.895882 -2.861206 -5.512949 -0.466952 2.006604 13.790572 2.136400 -0.000000 -45.176600 8.907055 1.005087 -2.580853 12.655012 -4.979274 -33.470915 2.856012 0.546585 12.509152 -1.949460 -6.957753 -8.553799 -0.516301 -0.000000 -46.448200
2.922469 17.311604 -1.152768 31.750351 -77.241058 -3.732944 -6.274493 -0.949315 7.257096 -6.463581 -19.685636 -77.944270 -4.569580 -2.668800 -4.942907 -0.305765 2.607592 13.650767 2.308199 0.000000 -44.537300 8.917065 0.879361 -2.424742 12.827325 -4.684259 -32.042763 2.836516 0.640249 11.715120 -1.914847 -6.991245 -8.189114 -0.565300 0.000000 -46.523900
2.898325 17.321891 -1.130454 31.243402 -77.917360 -4.061555 -6.454185 -0.970766 6.985759 -5.953460 -18.578521 -75.097362 -4.190077 -2.477543 -4.234380 -0.096842 3.451712 13.353331 2.565800 -0.000000 -43.812100 8.924157 0.760947 -2.258660 12.976113 -4.352868 -30.684038 2.814373 0.724653 10.974889 -1.887338 -7.047684 -7.843398 -0.614400 0.000000 -46.602500
2.872107 17.331004 -1.107422 30.831362 -78.587926 -4.432626 -6.626420 -0.982107 6.771644 -5.047306 -17.704228 -72.348851 -3.762572 -2.285262 -3.349491 0.160501 4.540541 12.889375 2.899800 0.000000 -43.031400 8.930891 0.652142 -2.086654 13.094483 -3.999889 -29.406032 2.790531 0.798840 10.296974 -1.864409 -7.112461 -7.523340 -0.661400 0.000000 -46.682601
2.843906 17.339036 -1.083968 30.570077 -79.247226 -4.903009 -6.785226 -0.978369 6.611338 -3.849706 -17.111652 -69.694037 -3.301025 -2.088922 -2.244927 0.459536 5.831692 12.260776 3.280400 0.000001 -42.216400 8.941295 0.554278 -1.913082 13.175511 -3.647184 -28.213133 2.766201 0.862205 9.687456 -1.842233 -7.164971 -7.234962 -0.703400 -0.000000 -46.767000
2.813918 17.346214 -1.060312 30.519498 -79.891495 -5.542082 -6.925537 -0.955727 6.492953 -2.507934 -16.809247 -67.128213 -2.827492 -1.885696 -0.882627 0.785513 7.240431 11.481236 3.661500 -0.000000 -41.381000 8.960414 0.467744 -1.741785 13.212591 -3.319283 -27.100731 2.742308 0.914538 9.148443 -1.816366 -7.183059 -6.980519 -0.737600 0.000000 -46.862000
2.782393 17.352702 -1.036589 30.731797 -80.520277 -6.417105 -7.045259 -0.912918 6.397746 -1.190355 -16.757993 -64.645439 -2.369235 -1.673442 0.760213 1.116782 8.652336 10.577260 3.990200 -0.000000 -40.536400 8.992901 0.391708 -1.575470 13.202542 -3.038026 -26.056615 2.719729 0.956260 8.677702 -1.782635 -7.146571 -6.760446 -0.761400 0.000000 -46.973600
2.749549 17.358665 -1.012801 31.242283 -81.136178 -7.579165 -7.146487 -0.851556 6.304073 -0.057355 -16.875899 -62.235715 -1.953893 -1.451512 2.679703 1.428616 9.947508 9.584084 4.219800 -0.000000 -39.686100 9.041843 0.323931 -1.414898 13.147529 -2.816251 -25.062468 2.699010 0.988625 8.266739 -1.738309 -7.043907 -6.570750 -0.773600 0.000000 -47.106800
2.715657 17.364149 -0.988734 32.048501 -81.742846 -9.039084 -7.235970 -0.775603 6.192399 0.770307 -17.054508 -59.885253 -1.603251 -1.220998 4.840047 1.698788 11.028500 8.541287 4.322700 0.000000 -38.825899 9.107041 0.260776 -1.258610 13.056780 -2.654604 -24.100173 2.680798 1.013635 7.901569 -1.682738 -6.874337 -6.404291 -0.775000 0.000000 -47.262001
2.680941 17.369161 -0.964145 33.125912 -82.342975 -10.778479 -7.322365 -0.689337 6.050021 1.235737 -17.187582 -57.577118 -1.328201 -0.985664 7.170500 1.913775 11.847421 7.486700 4.297700 -0.000000 -37.941400 9.185708 0.198200 -1.104009 12.943404 -2.543585 -23.155619 2.665537 1.033567 7.565515 -1.617338 -6.647433 -6.252162 -0.767900 0.000000 -47.436200
2.645594 17.373663 -0.938705 34.421244 -82.936575 -12.741164 -7.414434 -0.595689 5.872385 1.340465 -17.186829 -55.303402 -1.129200 -0.750852 9.583719 2.069332 12.399596 6.448163 4.163100 -0.000000 -37.009100 9.272250 0.131719 -0.946768 12.823296 -2.465105 -22.225025 2.653770 1.050734 7.242559 -1.545259 -6.380782 -6.105518 -0.755500 0.000000 -47.623100
2.609740 17.377626 -0.912155 35.884753 -83.520236 -14.866983 -7.517638 -0.495348 5.662944 1.134606 -16.999045 -53.064235 -0.997676 -0.523505 11.985131 2.170886 12.722098 5.441206 3.949200 -0.000000 -36.000300 9.360929 0.058016 -0.782647 12.708594 -2.401076 -21.314814 2.645789 1.066958 6.920884 -1.470042 -6.093205 -5.957285 -0.741100 0.000001 -47.816000
2.573433 17.381088 -0.884370 37.481142 -84.087905 -17.105872 -7.633152 -0.387412 5.430473 0.692300 -16.606488 -50.869464 -0.920465 -0.311030 14.286372 2.229882 12.874435 4.470651 3.688600 -0.000000 -34.900600 9.446880 -0.024722 -0.607764 12.605884 -2.334802 -20.437884 2.641344 1.083628 6.592439 -1.395234 -5.803331 -5.801972 -0.727500 0.000000 -48.012400
2.536575 17.384146 -0.855381 39.191653 -84.632585 -19.421718 -7.758969 -0.270274 5.185353 0.087259 -16.012364 -48.738202 -0.884637 -0.119375 16.422484 2.258637 12.912318 3.528380 3.405400 0.000000 -33.694500 9.526546 -0.117317 -0.418215 12.518226 -2.253283 -19.612243 2.640103 1.101824 6.254250 -1.323686 -5.525706 -5.637477 -0.716500 0.000000 -48.207101
2.499041 17.386937 -0.825392 41.031660 -85.145186 -21.816632 -7.889697 -0.142337 4.939136 -0.614679 -15.243863 -46.686221 -0.878628 0.046254 18.338808 2.269784 12.892634 2.607971 3.119300 -0.000001 -32.394600 9.599577 -0.218781 -0.213192 12.441601 -2.157276 -18.855739 2.641726 1.121669 5.910228 -1.256118 -5.263323 -5.465211 -0.708200 0.000000 -48.395900
